REM DIRINDEX 1\2\4,1\2\5,1\2\6,1\3\7,1\3\8,1\3\9,1\3\10
REM DIRNAME folder01,folder02,folder03,folder04,folder05,folder06,folder07,folder08,folder09,folder10
TITLE ""
FILE "b_044.mp3" MP3
  TRACK 01 AUDIO
    TITLE "0:"
    INDEX 01 00:00:00
  TRACK 02 AUDIO
    TITLE "7:cjc057_05507"
    INDEX 01 00:00:11
  TRACK 03 AUDIO
    TITLE "0:"
    INDEX 01 00:01:36
  TRACK 04 AUDIO
    TITLE "8:cjc057_05508"
    INDEX 01 00:01:69
  TRACK 05 AUDIO
    TITLE "0:"
    INDEX 01 00:04:25
  TRACK 06 AUDIO
    TITLE "9:cjc057_05509"
    INDEX 01 00:04:74
  TRACK 07 AUDIO
    TITLE "0:"
    INDEX 01 00:08:19
  TRACK 08 AUDIO
    TITLE "7:cjc057_05510"
    INDEX 01 00:09:30
  TRACK 09 AUDIO
    TITLE "0:"
    INDEX 01 00:10:41
  TRACK 10 AUDIO
    TITLE "8:cjc057_05511"
    INDEX 01 00:11:01
  TRACK 11 AUDIO
    TITLE "0:"
    INDEX 01 00:12:07
  TRACK 12 AUDIO
    TITLE "9:cjc057_05512"
    INDEX 01 00:12:56
  TRACK 13 AUDIO
    TITLE "0:"
    INDEX 01 00:15:54
  TRACK 14 AUDIO
    TITLE "7:cjc057_05513"
    INDEX 01 00:16:59
  TRACK 15 AUDIO
    TITLE "0:"
    INDEX 01 00:17:72
  TRACK 16 AUDIO
    TITLE "8:cjc057_05514"
    INDEX 01 00:18:31
  TRACK 17 AUDIO
    TITLE "0:"
    INDEX 01 00:19:32
  TRACK 18 AUDIO
    TITLE "9:cjc057_05515"
    INDEX 01 00:20:04
  TRACK 19 AUDIO
    TITLE "0:"
    INDEX 01 00:23:42
  TRACK 20 AUDIO
    TITLE "7:cjc057_05516"
    INDEX 01 00:24:55
  TRACK 21 AUDIO
    TITLE "0:"
    INDEX 01 00:25:62
  TRACK 22 AUDIO
    TITLE "8:cjc057_05517"
    INDEX 01 00:26:22
  TRACK 23 AUDIO
    TITLE "0:"
    INDEX 01 00:28:45
  TRACK 24 AUDIO
    TITLE "9:cjc057_05518"
    INDEX 01 00:29:21
  TRACK 25 AUDIO
    TITLE "0:"
    INDEX 01 00:33:03
  TRACK 26 AUDIO
    TITLE "7:cjc057_05519"
    INDEX 01 00:34:12
  TRACK 27 AUDIO
    TITLE "0:"
    INDEX 01 00:35:33
  TRACK 28 AUDIO
    TITLE "8:cjc057_05520"
    INDEX 01 00:35:64
  TRACK 29 AUDIO
    TITLE "0:"
    INDEX 01 00:37:28
  TRACK 30 AUDIO
    TITLE "9:cjc057_05521"
    INDEX 01 00:38:00
  TRACK 31 AUDIO
    TITLE "0:"
    INDEX 01 00:41:18
  TRACK 32 AUDIO
    TITLE "7:cjc057_05522"
    INDEX 01 00:42:23
  TRACK 33 AUDIO
    TITLE "0:"
    INDEX 01 00:43:58
  TRACK 34 AUDIO
    TITLE "8:cjc057_05523"
    INDEX 01 00:44:16
  TRACK 35 AUDIO
    TITLE "0:"
    INDEX 01 00:46:68
  TRACK 36 AUDIO
    TITLE "9:cjc057_05524"
    INDEX 01 00:47:38
  TRACK 37 AUDIO
    TITLE "0:"
    INDEX 01 00:50:54
  TRACK 38 AUDIO
    TITLE "7:cjc057_05525"
    INDEX 01 00:51:63
  TRACK 39 AUDIO
    TITLE "0:"
    INDEX 01 00:53:23
  TRACK 40 AUDIO
    TITLE "8:cjc057_05526"
    INDEX 01 00:53:58
  TRACK 41 AUDIO
    TITLE "0:"
    INDEX 01 00:55:14
  TRACK 42 AUDIO
    TITLE "9:cjc057_05527"
    INDEX 01 00:55:57
  TRACK 43 AUDIO
    TITLE "0:"
    INDEX 01 00:58:58
  TRACK 44 AUDIO
    TITLE "7:cjc057_05528"
    INDEX 01 00:59:69
  TRACK 45 AUDIO
    TITLE "0:"
    INDEX 01 01:01:33
  TRACK 46 AUDIO
    TITLE "8:cjc057_05529"
    INDEX 01 01:01:66
  TRACK 47 AUDIO
    TITLE "0:"
    INDEX 01 01:03:16
  TRACK 48 AUDIO
    TITLE "9:cjc057_05530"
    INDEX 01 01:03:61
  TRACK 49 AUDIO
    TITLE "0:"
    INDEX 01 01:07:47
  TRACK 50 AUDIO
    TITLE "7:cjc057_05531"
    INDEX 01 01:08:58
  TRACK 51 AUDIO
    TITLE "0:"
    INDEX 01 01:10:04
  TRACK 52 AUDIO
    TITLE "8:cjc057_05532"
    INDEX 01 01:10:41
  TRACK 53 AUDIO
    TITLE "0:"
    INDEX 01 01:12:24
  TRACK 54 AUDIO
    TITLE "9:cjc057_05533"
    INDEX 01 01:12:71
  TRACK 55 AUDIO
    TITLE "0:"
    INDEX 01 01:16:07
  TRACK 56 AUDIO
    TITLE "7:cjc057_05534"
    INDEX 01 01:17:18
  TRACK 57 AUDIO
    TITLE "0:"
    INDEX 01 01:18:35
  TRACK 58 AUDIO
    TITLE "8:cjc057_05535"
    INDEX 01 01:18:72
  TRACK 59 AUDIO
    TITLE "0:"
    INDEX 01 01:22:50
  TRACK 60 AUDIO
    TITLE "9:cjc057_05536"
    INDEX 01 01:23:18
  TRACK 61 AUDIO
    TITLE "0:"
    INDEX 01 01:26:56
  TRACK 62 AUDIO
    TITLE "7:cjc057_05537"
    INDEX 01 01:27:65
  TRACK 63 AUDIO
    TITLE "0:"
    INDEX 01 01:28:71
  TRACK 64 AUDIO
    TITLE "8:cjc057_05538"
    INDEX 01 01:29:31
  TRACK 65 AUDIO
    TITLE "0:"
    INDEX 01 01:32:04
  TRACK 66 AUDIO
    TITLE "9:cjc057_05539"
    INDEX 01 01:32:53
  TRACK 67 AUDIO
    TITLE "0:"
    INDEX 01 01:36:37
  TRACK 68 AUDIO
    TITLE "7:cjc057_05540"
    INDEX 01 01:37:48
  TRACK 69 AUDIO
    TITLE "0:"
    INDEX 01 01:38:69
  TRACK 70 AUDIO
    TITLE "8:cjc057_05541"
    INDEX 01 01:39:29
  TRACK 71 AUDIO
    TITLE "0:"
    INDEX 01 01:40:66
  TRACK 72 AUDIO
    TITLE "9:cjc057_05542"
    INDEX 01 01:41:40
  TRACK 73 AUDIO
    TITLE "0:"
    INDEX 01 01:44:44
  TRACK 74 AUDIO
    TITLE "7:cjc057_05543"
    INDEX 01 01:45:55
  TRACK 75 AUDIO
    TITLE "0:"
    INDEX 01 01:46:70
  TRACK 76 AUDIO
    TITLE "8:cjc057_05544"
    INDEX 01 01:47:29
  TRACK 77 AUDIO
    TITLE "0:"
    INDEX 01 01:49:06
  TRACK 78 AUDIO
    TITLE "9:cjc057_05545"
    INDEX 01 01:49:53
  TRACK 79 AUDIO
    TITLE "0:"
    INDEX 01 01:52:48
  TRACK 80 AUDIO
    TITLE "7:cjc057_05546"
    INDEX 01 01:53:59
  TRACK 81 AUDIO
    TITLE "0:"
    INDEX 01 01:55:13
  TRACK 82 AUDIO
    TITLE "8:cjc057_05547"
    INDEX 01 01:55:46
  TRACK 83 AUDIO
    TITLE "0:"
    INDEX 01 01:57:00
  TRACK 84 AUDIO
    TITLE "9:cjc057_05548"
    INDEX 01 01:57:49
  TRACK 85 AUDIO
    TITLE "0:"
    INDEX 01 02:00:65
  TRACK 86 AUDIO
    TITLE "7:cjc057_05549"
    INDEX 01 02:02:01
  TRACK 87 AUDIO
    TITLE "0:"
    INDEX 01 02:03:10
  TRACK 88 AUDIO
    TITLE "8:cjc057_05550"
    INDEX 01 02:03:43
  TRACK 89 AUDIO
    TITLE "0:"
    INDEX 01 02:05:56
  TRACK 90 AUDIO
    TITLE "9:cjc057_05551"
    INDEX 01 02:06:24
  TRACK 91 AUDIO
    TITLE "0:"
    INDEX 01 02:09:26
